<svg width="17" height="17" viewBox="0 0 17 17" fill="none" xmlns="http://www.w3.org/2000/svg">
<rect width="17" height="17" rx="8.5" fill="#1D1D1D"/>
<g clip-path="url(#clip0_4004_2425)">
<path fill-rule="evenodd" clip-rule="evenodd" d="M7.91647 4.81344C8.08419 4.68611 8.28897 4.61719 8.49954 4.61719C8.71011 4.61719 8.9149 4.68611 9.08261 4.81344L9.5069 5.13551C10.7533 6.08239 11.8211 7.24375 12.6601 8.56515L12.7964 8.77923C12.8581 8.87642 12.8926 8.9884 12.8962 9.10347C12.8999 9.21854 12.8725 9.33248 12.8171 9.43338C12.7617 9.53428 12.6801 9.61843 12.581 9.67706C12.482 9.73569 12.369 9.76663 12.2538 9.76665H11.8096C11.8353 10.3581 11.8032 10.9502 11.7132 11.5358C11.6699 11.8177 11.527 12.0747 11.3105 12.2603C11.0939 12.446 10.8181 12.5479 10.5329 12.5477H9.30311V10.4288C9.30311 10.3233 9.28233 10.2188 9.24194 10.1213C9.20156 10.0238 9.14237 9.9352 9.06775 9.86059C8.99313 9.78597 8.90455 9.72678 8.80705 9.68639C8.70956 9.64601 8.60507 9.62523 8.49954 9.62523C8.39402 9.62523 8.28952 9.64601 8.19203 9.68639C8.09453 9.72678 8.00595 9.78597 7.93133 9.86059C7.85671 9.9352 7.79752 10.0238 7.75714 10.1213C7.71676 10.2188 7.69597 10.3233 7.69597 10.4288V12.5477H6.46618C6.18114 12.5476 5.90551 12.4456 5.68915 12.26C5.47279 12.0744 5.32998 11.8175 5.28654 11.5358C5.19654 10.9502 5.1644 10.3574 5.19011 9.76665H4.74526C4.63013 9.76663 4.51712 9.73569 4.41804 9.67706C4.31895 9.61843 4.23743 9.53428 4.18199 9.43338C4.12655 9.33248 4.09922 9.21854 4.10286 9.10347C4.1065 8.9884 4.14098 8.87642 4.20268 8.77923L4.33833 8.56451C5.17763 7.24328 6.2456 6.08214 7.49218 5.13551L7.91647 4.81344Z" fill="white"/>
</g>
<defs>
<clipPath id="clip0_4004_2425">
<rect width="9" height="9" fill="white" transform="translate(4 4)"/>
</clipPath>
</defs>
</svg>
