<svg width="246" height="100" viewBox="0 0 246 100" fill="none" xmlns="http://www.w3.org/2000/svg">
<path fill-rule="evenodd" clip-rule="evenodd" d="M0 0H110.175V21.1289H104.325V6.46743H5.85V92.6999H104.325V77.0776H110.175V99.1673H0V0Z" fill="white"/>
<path d="M107.343 66.7571L115.691 81.8924L98.7294 81.7093L107.343 66.7571Z" fill="white"/>
<path d="M107.095 31.2593L98.8078 17.2465L115.383 17.2465L107.095 31.2593Z" fill="white"/>
<path d="M81.2568 40.0449V49.3101C81.2568 50.9572 80.9611 52.3722 80.3696 53.5552C79.7856 54.7381 78.9434 55.6478 77.8428 56.2842C76.7497 56.9131 75.4357 57.2275 73.9009 57.2275C72.3735 57.2275 71.0596 56.9131 69.959 56.2842C68.8584 55.6478 68.0124 54.7381 67.4209 53.5552C66.8369 52.3722 66.5449 50.9572 66.5449 49.3101V40.0449H70.0039V48.8833C70.0039 50.0588 70.1499 51.0396 70.4419 51.8257C70.7414 52.6118 71.1794 53.207 71.7559 53.6113C72.3324 54.0081 73.0474 54.2065 73.9009 54.2065C74.7544 54.2065 75.4694 54.0081 76.0459 53.6113C76.6224 53.207 77.0566 52.6118 77.3486 51.8257C77.6481 51.0396 77.7979 50.0588 77.7979 48.8833V40.0449H81.2568Z" fill="white"/>
<path d="M97.6084 56.8906H93.7788L90.2412 50.8037H87.4561V56.8906H83.9971V40.0449H90.3984C91.7536 40.0449 92.9141 40.2583 93.8799 40.6851C94.8457 41.1118 95.5832 41.7295 96.0923 42.5381C96.6089 43.3392 96.8672 44.3013 96.8672 45.4243C96.8672 46.5773 96.5939 47.5618 96.0474 48.3779C95.5083 49.1865 94.7371 49.793 93.7339 50.1973L97.6084 56.8906ZM87.4561 48.0522H90.1401C91.1659 48.0522 91.952 47.8389 92.4985 47.4121C93.0526 46.9779 93.3296 46.3602 93.3296 45.5591C93.3296 44.758 93.0526 44.144 92.4985 43.7173C91.952 43.283 91.1659 43.0659 90.1401 43.0659H87.4561V48.0522Z" fill="white"/>
<path d="M115.667 56.8906H104.661V40.0449H108.12V53.8696H115.667V56.8906Z" fill="white"/>
<path d="M120.036 56.8906H116.408L123.124 40.0449H126.774L133.479 56.8906H129.851L128.47 53.2744H121.417L120.036 56.8906ZM122.551 50.2422H127.347L124.943 43.998L122.551 50.2422Z" fill="white"/>
<path d="M149.605 40.0449V49.3101C149.605 50.9572 149.31 52.3722 148.718 53.5552C148.134 54.7381 147.292 55.6478 146.191 56.2842C145.098 56.9131 143.784 57.2275 142.25 57.2275C140.722 57.2275 139.408 56.9131 138.308 56.2842C137.207 55.6478 136.361 54.7381 135.77 53.5552C135.186 52.3722 134.894 50.9572 134.894 49.3101V40.0449H138.353V48.8833C138.353 50.0588 138.499 51.0396 138.791 51.8257C139.09 52.6118 139.528 53.207 140.104 53.6113C140.681 54.0081 141.396 54.2065 142.25 54.2065C143.103 54.2065 143.818 54.0081 144.395 53.6113C144.971 53.207 145.405 52.6118 145.697 51.8257C145.997 51.0396 146.146 50.0588 146.146 48.8833V40.0449H149.605Z" fill="white"/>
<path d="M167.653 56.8906H163.677L155.805 45.3906V56.8906H152.346V40.0449H156.321L164.194 51.5674V40.0449H167.653V56.8906Z" fill="white"/>
<path d="M170.404 56.8906V40.0449H175.918C177.955 40.0449 179.718 40.3893 181.208 41.0781C182.698 41.7669 183.851 42.7402 184.667 43.998C185.483 45.2559 185.891 46.7458 185.891 48.4678C185.891 50.1823 185.483 51.6722 184.667 52.9375C183.851 54.1953 182.698 55.1686 181.208 55.8574C179.718 56.5462 177.955 56.8906 175.918 56.8906H170.404ZM173.863 53.8696H176.042C177.39 53.8696 178.531 53.66 179.467 53.2407C180.411 52.814 181.126 52.2 181.612 51.3989C182.106 50.5903 182.354 49.6133 182.354 48.4678C182.354 47.3148 182.106 46.3377 181.612 45.5366C181.126 44.7355 180.411 44.1253 179.467 43.7061C178.531 43.2793 177.39 43.0659 176.042 43.0659H173.863V53.8696Z" fill="white"/>
<path d="M201.67 56.8906H197.84L194.303 50.8037H191.518V56.8906H188.059V40.0449H194.46C195.815 40.0449 196.976 40.2583 197.941 40.6851C198.907 41.1118 199.645 41.7295 200.154 42.5381C200.67 43.3392 200.929 44.3013 200.929 45.4243C200.929 46.5773 200.655 47.5618 200.109 48.3779C199.57 49.1865 198.799 49.793 197.795 50.1973L201.67 56.8906ZM191.518 48.0522H194.202C195.227 48.0522 196.014 47.8389 196.56 47.4121C197.114 46.9779 197.391 46.3602 197.391 45.5591C197.391 44.758 197.114 44.144 196.56 43.7173C196.014 43.283 195.227 43.0659 194.202 43.0659H191.518V48.0522Z" fill="white"/>
<path d="M211.71 56.8906H208.251V49.6919L201.872 40.0449H206.072L209.958 46.6484L213.889 40.0449H218.089L211.71 49.7031V56.8906Z" fill="white"/>
<path d="M137.307 90H132.598V75.4545H137.456C138.881 75.4545 140.105 75.7457 141.128 76.3281C142.151 76.9058 142.934 77.7367 143.479 78.821C144.028 79.9006 144.303 81.1955 144.303 82.706C144.303 84.2211 144.026 85.5232 143.472 86.6122C142.922 87.7012 142.127 88.5393 141.085 89.1264C140.044 89.7088 138.784 90 137.307 90ZM134.793 88.0824H137.186C138.294 88.0824 139.215 87.8741 139.949 87.4574C140.683 87.036 141.232 86.4276 141.597 85.6321C141.961 84.8319 142.143 83.8565 142.143 82.706C142.143 81.5649 141.961 80.5966 141.597 79.8011C141.237 79.0057 140.699 78.402 139.984 77.9901C139.269 77.5781 138.382 77.3722 137.321 77.3722H134.793V88.0824ZM146.861 90V79.0909H148.914V80.8239H149.027C149.226 80.2367 149.577 79.7751 150.078 79.4389C150.585 79.098 151.158 78.9276 151.797 78.9276C151.93 78.9276 152.086 78.9323 152.266 78.9418C152.451 78.9512 152.595 78.9631 152.699 78.9773V81.0085C152.614 80.9848 152.462 80.9588 152.245 80.9304C152.027 80.8973 151.809 80.8807 151.591 80.8807C151.089 80.8807 150.642 80.9872 150.249 81.2003C149.861 81.4086 149.553 81.6998 149.326 82.0739C149.098 82.4432 148.985 82.8646 148.985 83.3381V90H146.861ZM154.537 90V79.0909H156.661V90H154.537ZM155.609 77.4077C155.24 77.4077 154.923 77.2846 154.658 77.0384C154.397 76.7874 154.267 76.4891 154.267 76.1435C154.267 75.7931 154.397 75.4948 154.658 75.2486C154.923 74.9976 155.24 74.8722 155.609 74.8722C155.979 74.8722 156.294 74.9976 156.554 75.2486C156.819 75.4948 156.952 75.7931 156.952 76.1435C156.952 76.4891 156.819 76.7874 156.554 77.0384C156.294 77.2846 155.979 77.4077 155.609 77.4077ZM168.85 79.0909L164.894 90H162.621L158.658 79.0909H160.938L163.701 87.4858H163.814L166.57 79.0909H168.85ZM175.176 90.2202C174.101 90.2202 173.176 89.9905 172.399 89.5312C171.627 89.0672 171.031 88.4162 170.609 87.5781C170.193 86.7353 169.984 85.7481 169.984 84.6165C169.984 83.4991 170.193 82.5142 170.609 81.6619C171.031 80.8097 171.618 80.1444 172.371 79.6662C173.128 79.188 174.014 78.9489 175.027 78.9489C175.643 78.9489 176.239 79.0507 176.817 79.2543C177.394 79.4579 177.913 79.7775 178.372 80.2131C178.831 80.6487 179.194 81.2145 179.459 81.9105C179.724 82.6018 179.857 83.4422 179.857 84.4318V85.1847H171.185V83.5938H177.776C177.776 83.035 177.662 82.5402 177.435 82.1094C177.207 81.6738 176.888 81.3305 176.476 81.0795C176.069 80.8286 175.59 80.7031 175.041 80.7031C174.445 80.7031 173.924 80.8499 173.479 81.1435C173.038 81.4323 172.697 81.8111 172.456 82.2798C172.219 82.7438 172.101 83.2481 172.101 83.7926V85.0355C172.101 85.7647 172.229 86.3849 172.484 86.8963C172.745 87.4077 173.107 87.7983 173.571 88.0682C174.035 88.3333 174.577 88.4659 175.197 88.4659C175.6 88.4659 175.967 88.4091 176.298 88.2955C176.63 88.1771 176.916 88.0019 177.158 87.7699C177.399 87.5379 177.584 87.2514 177.712 86.9105L179.722 87.2727C179.561 87.8646 179.272 88.383 178.855 88.8281C178.443 89.2685 177.925 89.6117 177.3 89.858C176.679 90.0994 175.972 90.2202 175.176 90.2202ZM182.213 90V79.0909H184.265V80.8239H184.379C184.578 80.2367 184.928 79.7751 185.43 79.4389C185.937 79.098 186.51 78.9276 187.149 78.9276C187.281 78.9276 187.438 78.9323 187.618 78.9418C187.802 78.9512 187.947 78.9631 188.051 78.9773V81.0085C187.966 80.9848 187.814 80.9588 187.596 80.9304C187.378 80.8973 187.161 80.8807 186.943 80.8807C186.441 80.8807 185.993 80.9872 185.6 81.2003C185.212 81.4086 184.904 81.6998 184.677 82.0739C184.45 82.4432 184.336 82.8646 184.336 83.3381V90H182.213ZM192.046 75.4545V76.8182C192.046 77.2206 191.97 77.6444 191.819 78.0895C191.672 78.5298 191.463 78.9536 191.194 79.3608C190.924 79.768 190.606 80.1184 190.242 80.4119L189.191 79.6591C189.47 79.2519 189.712 78.8187 189.915 78.3594C190.123 77.9001 190.228 77.3935 190.228 76.8395V75.4545H192.046ZM200.895 81.7543L198.971 82.0952C198.89 81.849 198.762 81.6146 198.587 81.392C198.417 81.1695 198.185 80.9872 197.891 80.8452C197.597 80.7031 197.23 80.6321 196.79 80.6321C196.189 80.6321 195.687 80.767 195.284 81.0369C194.882 81.3021 194.681 81.6454 194.681 82.0668C194.681 82.4313 194.816 82.7249 195.086 82.9474C195.355 83.17 195.791 83.3523 196.392 83.4943L198.125 83.892C199.129 84.1241 199.877 84.4815 200.37 84.9645C200.862 85.4474 201.108 86.0748 201.108 86.8466C201.108 87.5 200.919 88.0824 200.54 88.5938C200.166 89.1004 199.643 89.4981 198.971 89.7869C198.303 90.0758 197.529 90.2202 196.648 90.2202C195.426 90.2202 194.43 89.9598 193.658 89.4389C192.886 88.9134 192.413 88.1676 192.238 87.2017L194.29 86.8892C194.418 87.4242 194.681 87.8291 195.078 88.1037C195.476 88.3736 195.995 88.5085 196.634 88.5085C197.33 88.5085 197.886 88.3641 198.303 88.0753C198.72 87.7817 198.928 87.4242 198.928 87.0028C198.928 86.6619 198.8 86.3755 198.544 86.1435C198.293 85.9115 197.908 85.7363 197.387 85.6179L195.54 85.2131C194.522 84.9811 193.769 84.6117 193.282 84.1051C192.799 83.5985 192.557 82.9569 192.557 82.1804C192.557 81.5365 192.737 80.973 193.097 80.4901C193.457 80.0071 193.954 79.6307 194.588 79.3608C195.223 79.0862 195.95 78.9489 196.769 78.9489C197.948 78.9489 198.876 79.2045 199.553 79.7159C200.23 80.2225 200.677 80.902 200.895 81.7543ZM210.135 90H207.806L213.04 75.4545H215.576L220.81 90H218.48L214.368 78.0966H214.255L210.135 90ZM210.526 84.304H218.083V86.1506H210.526V84.304ZM222.74 94.0909V79.0909H224.814V80.8594H224.991C225.115 80.6321 225.292 80.3693 225.524 80.071C225.756 79.7727 226.078 79.5123 226.49 79.2898C226.902 79.0625 227.446 78.9489 228.124 78.9489C229.004 78.9489 229.79 79.1714 230.482 79.6165C231.173 80.0616 231.715 80.7031 232.108 81.5412C232.506 82.3793 232.705 83.3878 232.705 84.5668C232.705 85.7457 232.508 86.7566 232.115 87.5994C231.722 88.4375 231.182 89.0838 230.496 89.5384C229.809 89.9882 229.026 90.2131 228.145 90.2131C227.482 90.2131 226.94 90.1018 226.518 89.8793C226.102 89.6567 225.775 89.3963 225.538 89.098C225.302 88.7997 225.119 88.5346 224.991 88.3026H224.864V94.0909H222.74ZM224.821 84.5455C224.821 85.3125 224.932 85.9848 225.155 86.5625C225.377 87.1402 225.699 87.5923 226.121 87.919C226.542 88.241 227.058 88.402 227.669 88.402C228.304 88.402 228.834 88.2339 229.26 87.8977C229.686 87.5568 230.008 87.0952 230.226 86.5128C230.448 85.9304 230.56 85.2746 230.56 84.5455C230.56 83.8258 230.451 83.1795 230.233 82.6065C230.02 82.0336 229.698 81.5814 229.267 81.25C228.841 80.9186 228.308 80.7528 227.669 80.7528C227.054 80.7528 226.533 80.9115 226.107 81.2287C225.685 81.5459 225.366 81.9886 225.148 82.5568C224.93 83.125 224.821 83.7879 224.821 84.5455ZM235.084 94.0909V79.0909H237.158V80.8594H237.335C237.458 80.6321 237.636 80.3693 237.868 80.071C238.1 79.7727 238.422 79.5123 238.834 79.2898C239.246 79.0625 239.79 78.9489 240.467 78.9489C241.348 78.9489 242.134 79.1714 242.825 79.6165C243.517 80.0616 244.059 80.7031 244.452 81.5412C244.849 82.3793 245.048 83.3878 245.048 84.5668C245.048 85.7457 244.852 86.7566 244.459 87.5994C244.066 88.4375 243.526 89.0838 242.839 89.5384C242.153 89.9882 241.369 90.2131 240.489 90.2131C239.826 90.2131 239.284 90.1018 238.862 89.8793C238.446 89.6567 238.119 89.3963 237.882 89.098C237.645 88.7997 237.463 88.5346 237.335 88.3026H237.207V94.0909H235.084ZM237.165 84.5455C237.165 85.3125 237.276 85.9848 237.499 86.5625C237.721 87.1402 238.043 87.5923 238.464 87.919C238.886 88.241 239.402 88.402 240.013 88.402C240.647 88.402 241.178 88.2339 241.604 87.8977C242.03 87.5568 242.352 87.0952 242.57 86.5128C242.792 85.9304 242.903 85.2746 242.903 84.5455C242.903 83.8258 242.795 83.1795 242.577 82.6065C242.364 82.0336 242.042 81.5814 241.611 81.25C241.185 80.9186 240.652 80.7528 240.013 80.7528C239.397 80.7528 238.876 80.9115 238.45 81.2287C238.029 81.5459 237.709 81.9886 237.491 82.5568C237.274 83.125 237.165 83.7879 237.165 84.5455Z" fill="white"/>
</svg>
