<svg width="10" height="10" viewBox="0 0 10 10" fill="none" xmlns="http://www.w3.org/2000/svg">
<path d="M2.77972 0.278271C2.269 -0.143158 1.50829 -0.0860151 1.12114 0.450413C0.994716 0.624699 0.859001 0.823985 0.589715 1.16113C0.206958 1.64395 -0.000977516 2.24217 -0.000199318 2.8583C0.00057888 3.47443 0.210025 4.07213 0.594001 4.55399C1.17829 5.27899 1.79114 6.0097 2.47686 6.69541C3.16186 7.38041 3.89329 7.99327 4.61757 8.57827C5.09937 8.96237 5.69709 9.17189 6.31325 9.17267C6.92942 9.17345 7.52766 8.96544 8.01043 8.58256C8.36614 8.29827 8.56614 8.1647 8.74614 8.03399C9.26329 7.65827 9.334 6.92684 8.93186 6.42899C8.55471 5.96113 8.12543 5.51756 7.71543 5.0847C7.58154 4.94606 7.39974 4.86381 7.20722 4.85478C7.01469 4.84575 6.82599 4.91062 6.67971 5.03613C6.49043 5.19756 6.34114 5.31898 6.00114 5.63827C4.874 4.96899 4.19114 4.27756 3.53329 3.17113C3.85471 2.82898 3.97614 2.6797 4.139 2.48827C4.26437 2.34267 4.32908 2.1545 4.31978 1.96258C4.31048 1.77066 4.22787 1.58964 4.089 1.45684C3.664 1.0597 3.23114 0.650413 2.77972 0.278271Z" fill="#357BF3"/>
</svg>
