<svg width="17" height="17" viewBox="0 0 17 17" fill="none" xmlns="http://www.w3.org/2000/svg">
<rect width="17" height="17" rx="8.5" fill="#1D1D1D"/>
<g clip-path="url(#clip0_4004_2426)">
<path fill-rule="evenodd" clip-rule="evenodd" d="M5.13965 8.21843C4.68777 8.21843 4.29721 7.82918 4.2959 7.31786L4.29665 7.30605C4.2974 7.29293 4.29946 7.2693 4.30377 7.23386C4.3124 7.1628 4.33059 7.04505 4.36865 6.87011C4.44477 6.51986 4.59946 5.94311 4.91334 5.05586C5.04234 4.6908 5.34309 4.43936 5.70646 4.40036C7.57336 4.20248 9.45594 4.20248 11.3228 4.40036C11.6862 4.43936 11.987 4.69099 12.116 5.05586C12.4298 5.94311 12.5847 6.51986 12.6606 6.87011C12.6987 7.04505 12.7169 7.1628 12.7255 7.23386C12.729 7.26177 12.7317 7.28979 12.7334 7.31786C12.7321 7.82918 12.3415 8.21843 11.8896 8.21843C11.437 8.21843 11.0459 7.82786 11.0459 7.31543C11.0459 7.24083 11.0163 7.1693 10.9635 7.11655C10.9108 7.06381 10.8392 7.03418 10.7646 7.03418C10.6901 7.03418 10.6185 7.06381 10.5658 7.11655C10.513 7.1693 10.4834 7.24083 10.4834 7.31543C10.4834 7.82786 10.0923 8.21843 9.63965 8.21843C9.18702 8.21843 8.7959 7.82786 8.7959 7.31543C8.7959 7.24083 8.76627 7.1693 8.71352 7.11655C8.66078 7.06381 8.58924 7.03418 8.51465 7.03418C8.44006 7.03418 8.36852 7.06381 8.31577 7.11655C8.26303 7.1693 8.2334 7.24083 8.2334 7.31543C8.2334 7.82786 7.84227 8.21843 7.38965 8.21843C6.93702 8.21843 6.5459 7.82786 6.5459 7.31543C6.5459 7.24083 6.51627 7.1693 6.46352 7.11655C6.41078 7.06381 6.33924 7.03418 6.26465 7.03418C6.19006 7.03418 6.11852 7.06381 6.06577 7.11655C6.01303 7.1693 5.9834 7.24083 5.9834 7.31543C5.9834 7.82786 5.59227 8.21843 5.13965 8.21843ZM4.65665 8.69355V9.62543C4.65665 10.4667 4.6904 11.0967 4.72846 11.5387C4.78171 12.1589 5.27409 12.6136 5.88346 12.6509C6.44052 12.6851 7.29834 12.7192 8.5004 12.7192C9.70227 12.7192 10.5603 12.6851 11.1173 12.6509C11.7267 12.6134 12.2191 12.1589 12.2723 11.5387C12.3104 11.0967 12.3441 10.4667 12.3441 9.62543V8.70405C12.1982 8.75574 12.0445 8.78206 11.8896 8.78186C11.4241 8.78186 11.0189 8.54936 10.7646 8.19536C10.5104 8.54918 10.1052 8.78186 9.63965 8.78186C9.17409 8.78186 8.76909 8.54936 8.51465 8.19536C8.2604 8.54918 7.85521 8.78186 7.38965 8.78186C6.92409 8.78186 6.5189 8.54936 6.26465 8.19536C6.0104 8.54918 5.60521 8.78186 5.13965 8.78186C4.97462 8.78207 4.81093 8.75214 4.65665 8.69355ZM8.5004 9.90668C8.06484 9.90668 7.76371 9.93855 7.5629 9.97455C7.42677 9.99893 7.32252 10.1114 7.31146 10.3083C7.2959 10.5864 7.28165 11.0232 7.28165 11.6879C7.28165 11.8379 7.40165 11.9589 7.54771 11.9615C7.83684 11.9664 8.15409 11.9692 8.5004 11.9692C8.84671 11.9692 9.16396 11.9664 9.45309 11.9615C9.52439 11.9597 9.59218 11.9301 9.64191 11.879C9.69164 11.8278 9.71937 11.7593 9.71915 11.6879C9.71915 11.0232 9.7049 10.5864 9.68934 10.3083C9.67827 10.1114 9.57402 9.99893 9.43809 9.97455C9.23709 9.93855 8.93596 9.90668 8.5004 9.90668Z" fill="white"/>
</g>
<defs>
<clipPath id="clip0_4004_2426">
<rect width="9" height="9" fill="white" transform="translate(4 4)"/>
</clipPath>
</defs>
</svg>
